{
	"asset":{
		"generator":"Khronos glTF Blender I/O v3.5.30",
		"version":"2.0"
	},
	"scene":0,
	"scenes":[
		{
			"name":"Scene",
			"nodes":[
				9
			]
		}
	],
	"nodes":[
		{
			"name":"VINYL.051_50",
			"rotation":[
				0,
				0.21643966436386108,
				0,
				0.9762960076332092
			],
			"translation":[
				0,
				0.0016672665951773524,
				0.09536945819854736
			]
		},
		{
			"mesh":0,
			"name":"Object_159"
		},
		{
			"mesh":1,
			"name":"Object_160"
		},
		{
			"mesh":2,
			"name":"Object_161"
		},
		{
			"children":[
				1,
				2,
				3
			],
			"name":"label_51"
		},
		{
			"mesh":3,
			"name":"Object_157"
		},
		{
			"children":[
				4,
				5
			],
			"name":"vinyl_52",
			"rotation":[
				0,
				-0.6699299812316895,
				0,
				0.7424243092536926
			],
			"translation":[
				0.1936371624469757,
				0.0015323662664741278,
				0.003416154533624649
			]
		},
		{
			"children":[
				0,
				6
			],
			"name":"GLTF_SceneRootNode",
			"rotation":[
				0.70710688829422,
				0,
				0,
				0.7071066498756409
			]
		},
		{
			"children":[
				7
			],
			"name":"root"
		},
		{
			"children":[
				8
			],
			"name":"Sketchfab_model",
			"rotation":[
				-0.70710688829422,
				0,
				0,
				0.7071066498756409
			],
			"scale":[
				10.88180923461914,
				10.881810188293457,
				10.881810188293457
			],
			"translation":[
				-2,
				0,
				0
			]
		}
	],
	"materials":[
		{
			"doubleSided":true,
			"name":"label_front",
			"pbrMetallicRoughness":{
				"baseColorTexture":{
					"index":0
				},
				"metallicFactor":0,
				"roughnessFactor":0.699999988079071
			}
		},
		{
			"doubleSided":true,
			"name":"label_back",
			"pbrMetallicRoughness":{
				"baseColorTexture":{
					"index":1
				},
				"metallicFactor":0,
				"roughnessFactor":0.699999988079071
			}
		},
		{
			"doubleSided":true,
			"name":"label_side",
			"pbrMetallicRoughness":{
				"baseColorFactor":[
					0.5209959745407104,
					0.5647119879722595,
					0.5647119879722595,
					1
				],
				"metallicFactor":0,
				"roughnessFactor":0.699999988079071
			}
		},
		{
			"doubleSided":true,
			"name":"vinyl",
			"pbrMetallicRoughness":{
				"baseColorTexture":{
					"index":2
				},
				"metallicFactor":0,
				"roughnessFactor":0.800000011920929
			}
		}
	],
	"meshes":[
		{
			"name":"Object_103",
			"primitives":[
				{
					"attributes":{
						"POSITION":0,
						"TEXCOORD_0":1,
						"NORMAL":2
					},
					"indices":3,
					"material":0
				}
			]
		},
		{
			"name":"Object_104",
			"primitives":[
				{
					"attributes":{
						"POSITION":4,
						"TEXCOORD_0":5,
						"NORMAL":6
					},
					"indices":7,
					"material":1
				}
			]
		},
		{
			"name":"Object_105",
			"primitives":[
				{
					"attributes":{
						"POSITION":8,
						"TEXCOORD_0":9,
						"NORMAL":10
					},
					"indices":11,
					"material":2
				}
			]
		},
		{
			"name":"Object_102",
			"primitives":[
				{
					"attributes":{
						"POSITION":12,
						"TEXCOORD_0":13,
						"TEXCOORD_1":14,
						"NORMAL":15
					},
					"indices":16,
					"material":3
				}
			]
		}
	],
	"textures":[
		{
			"sampler":0,
			"source":0
		},
		{
			"sampler":0,
			"source":1
		},
		{
			"sampler":0,
			"source":2
		}
	],
	"images":[
		{
			"bufferView":4,
			"mimeType":"image/jpeg",
			"name":"label_front_baseColor"
		},
		{
			"bufferView":9,
			"mimeType":"image/jpeg",
			"name":"label_back_baseColor"
		},
		{
			"bufferView":19,
			"mimeType":"image/jpeg",
			"name":"vinyl_baseColor"
		}
	],
	"accessors":[
		{
			"bufferView":0,
			"componentType":5126,
			"count":260,
			"max":[
				0.05000000074505806,
				0.0010000000474974513,
				0.05000000074505806
			],
			"min":[
				-0.05000000074505806,
				0.0010000000474974513,
				-0.05000000074505806
			],
			"type":"VEC3"
		},
		{
			"bufferView":1,
			"componentType":5126,
			"count":260,
			"type":"VEC2"
		},
		{
			"bufferView":2,
			"componentType":5126,
			"count":260,
			"type":"VEC3"
		},
		{
			"bufferView":3,
			"componentType":5123,
			"count":768,
			"type":"SCALAR"
		},
		{
			"bufferView":5,
			"componentType":5126,
			"count":260,
			"max":[
				0.05000000074505806,
				-0.0010000000474974513,
				0.05000000074505806
			],
			"min":[
				-0.05000000074505806,
				-0.0010000000474974513,
				-0.05000000074505806
			],
			"type":"VEC3"
		},
		{
			"bufferView":6,
			"componentType":5126,
			"count":260,
			"type":"VEC2"
		},
		{
			"bufferView":7,
			"componentType":5126,
			"count":260,
			"type":"VEC3"
		},
		{
			"bufferView":8,
			"componentType":5123,
			"count":768,
			"type":"SCALAR"
		},
		{
			"bufferView":10,
			"componentType":5126,
			"count":1024,
			"max":[
				0.05000000074505806,
				0.0010000000474974513,
				0.05000000074505806
			],
			"min":[
				-0.05000000074505806,
				-0.0010000000474974513,
				-0.05000000074505806
			],
			"type":"VEC3"
		},
		{
			"bufferView":11,
			"componentType":5126,
			"count":1024,
			"type":"VEC2"
		},
		{
			"bufferView":12,
			"componentType":5126,
			"count":1024,
			"type":"VEC3"
		},
		{
			"bufferView":13,
			"componentType":5123,
			"count":1536,
			"type":"SCALAR"
		},
		{
			"bufferView":14,
			"componentType":5126,
			"count":2398,
			"max":[
				0.15000000596046448,
				0.0010000000474974513,
				0.15000000596046448
			],
			"min":[
				-0.15000000596046448,
				-0.0010000000474974513,
				-0.15000000596046448
			],
			"type":"VEC3"
		},
		{
			"bufferView":15,
			"componentType":5126,
			"count":2398,
			"type":"VEC2"
		},
		{
			"bufferView":16,
			"componentType":5126,
			"count":2398,
			"type":"VEC2"
		},
		{
			"bufferView":17,
			"componentType":5126,
			"count":2398,
			"type":"VEC3"
		},
		{
			"bufferView":18,
			"componentType":5123,
			"count":4308,
			"type":"SCALAR"
		}
	],
	"bufferViews":[
		{
			"buffer":0,
			"byteLength":3120,
			"byteOffset":0,
			"target":34962
		},
		{
			"buffer":0,
			"byteLength":2080,
			"byteOffset":3120,
			"target":34962
		},
		{
			"buffer":0,
			"byteLength":3120,
			"byteOffset":5200,
			"target":34962
		},
		{
			"buffer":0,
			"byteLength":1536,
			"byteOffset":8320,
			"target":34963
		},
		{
			"buffer":0,
			"byteLength":172563,
			"byteOffset":9856
		},
		{
			"buffer":0,
			"byteLength":3120,
			"byteOffset":182420,
			"target":34962
		},
		{
			"buffer":0,
			"byteLength":2080,
			"byteOffset":185540,
			"target":34962
		},
		{
			"buffer":0,
			"byteLength":3120,
			"byteOffset":187620,
			"target":34962
		},
		{
			"buffer":0,
			"byteLength":1536,
			"byteOffset":190740,
			"target":34963
		},
		{
			"buffer":0,
			"byteLength":178159,
			"byteOffset":192276
		},
		{
			"buffer":0,
			"byteLength":12288,
			"byteOffset":370436,
			"target":34962
		},
		{
			"buffer":0,
			"byteLength":8192,
			"byteOffset":382724,
			"target":34962
		},
		{
			"buffer":0,
			"byteLength":12288,
			"byteOffset":390916,
			"target":34962
		},
		{
			"buffer":0,
			"byteLength":3072,
			"byteOffset":403204,
			"target":34963
		},
		{
			"buffer":0,
			"byteLength":28776,
			"byteOffset":406276,
			"target":34962
		},
		{
			"buffer":0,
			"byteLength":19184,
			"byteOffset":435052,
			"target":34962
		},
		{
			"buffer":0,
			"byteLength":19184,
			"byteOffset":454236,
			"target":34962
		},
		{
			"buffer":0,
			"byteLength":28776,
			"byteOffset":473420,
			"target":34962
		},
		{
			"buffer":0,
			"byteLength":8616,
			"byteOffset":502196,
			"target":34963
		},
		{
			"buffer":0,
			"byteLength":272545,
			"byteOffset":510812
		}
	],
	"samplers":[
		{
			"magFilter":9729,
			"minFilter":9987
		}
	],
	"buffers":[
		{
			"byteLength":783360,
			"uri":"data:application/octet-stream;base64,"
		}
	]
}
