{
  "accessors": [
    {
      "bufferView": 2,
      "componentType": 5126,
      "count": 1310,
      "max": [
        0.8771799802780151,
        0.9660500288009644,
        0.8771799802780151
      ],
      "min": [
        -0.8771799802780151,
        -0.9660500288009644,
        -0.8771799802780151
      ],
      "type": "VEC3"
    },
    {
      "bufferView": 2,
      "byteOffset": 15720,
      "componentType": 5126,
      "count": 1310,
      "max": [
        0.9696811437606812,
        1.0,
        0.9696811437606812
      ],
      "min": [
        -0.9696811437606812,
        -0.9999151229858398,
        -0.9696811437606812
      ],
      "type": "VEC3"
    },
    {
      "bufferView": 2,
      "byteOffset": 31440,
      "componentType": 5126,
      "count": 1310,
      "max": [
        0.43529412150382996,
        0.501960813999176,
        1.0
      ],
      "min": [
        0.0,
        0.1568627506494522,
        1.0
      ],
      "type": "VEC3"
    },
    {
      "bufferView": 1,
      "componentType": 5126,
      "count": 1310,
      "max": [
        0.0,
        0.0
      ],
      "min": [
        0.0,
        0.0
      ],
      "type": "VEC2"
    },
    {
      "bufferView": 0,
      "componentType": 5125,
      "count": 4560,
      "type": "SCALAR"
    },
    {
      "bufferView": 2,
      "byteOffset": 47160,
      "componentType": 5126,
      "count": 7813,
      "max": [
        0.9506700038909912,
        0.9751250147819519,
        0.9506700038909912
      ],
      "min": [
        -0.9506700038909912,
        -0.9809179902076721,
        -0.9506700038909912
      ],
      "type": "VEC3"
    },
    {
      "bufferView": 2,
      "byteOffset": 140916,
      "componentType": 5126,
      "count": 7813,
      "max": [
        1.0,
        1.0,
        1.0
      ],
      "min": [
        -1.0,
        -0.9999151229858398,
        -1.0
      ],
      "type": "VEC3"
    },
    {
      "bufferView": 2,
      "byteOffset": 234672,
      "componentType": 5126,
      "count": 7813,
      "max": [
        1.0,
        1.0,
        1.0
      ],
      "min": [
        0.9372549057006836,
        0.9372549057006836,
        0.9372549057006836
      ],
      "type": "VEC3"
    },
    {
      "bufferView": 1,
      "byteOffset": 10480,
      "componentType": 5126,
      "count": 7813,
      "max": [
        1.0,
        1.0
      ],
      "min": [
        0.0,
        0.0
      ],
      "type": "VEC2"
    },
    {
      "bufferView": 0,
      "byteOffset": 18240,
      "componentType": 5125,
      "count": 41604,
      "type": "SCALAR"
    }
  ],
  "asset": {
    "extras": {
      "author": "sadsixersfan (https://sketchfab.com/sadsixersfan)",
      "license": "CC-BY-4.0 (http://creativecommons.org/licenses/by/4.0/)",
      "source": "https://sketchfab.com/3d-models/basketball-2fd6f7dc02d8413da9af8195cf5f8239",
      "title": "basketball"
    },
    "generator": "Sketchfab-12.67.0",
    "version": "2.0"
  },
  "bufferViews": [
    {
      "buffer": 0,
      "byteLength": 184656,
      "name": "floatBufferViews",
      "target": 34963
    },
    {
      "buffer": 0,
      "byteLength": 72984,
      "byteOffset": 184656,
      "byteStride": 8,
      "name": "floatBufferViews",
      "target": 34962
    },
    {
      "buffer": 0,
      "byteLength": 328428,
      "byteOffset": 257640,
      "byteStride": 12,
      "name": "floatBufferViews",
      "target": 34962
    }
  ],
  "buffers": [
    {
      "byteLength": 586068,
      "uri": "scene.bin"
    }
  ],
  "images": [
    {
      "uri": "textures/sphere1_auv_baseColor.png"
    }
  ],
  "materials": [
    {
      "doubleSided": true,
      "name": "preto",
      "pbrMetallicRoughness": {
        "baseColorFactor": [
          0.027451,
          0.027451,
          0.027451,
          1.0
        ],
        "metallicFactor": 0.0,
        "roughnessFactor": 0.9791382615180885
      }
    },
    {
      "doubleSided": true,
      "name": "sphere1_auv",
      "pbrMetallicRoughness": {
        "baseColorTexture": {
          "index": 0
        },
        "metallicFactor": 0.0,
        "roughnessFactor": 0.9572620592855334
      }
    }
  ],
  "meshes": [
    {
      "name": "preto",
      "primitives": [
        {
          "attributes": {
            "COLOR_0": 2,
            "NORMAL": 1,
            "POSITION": 0,
            "TEXCOORD_0": 3
          },
          "indices": 4,
          "material": 0,
          "mode": 4
        }
      ]
    },
    {
      "name": "sphere1_auv",
      "primitives": [
        {
          "attributes": {
            "COLOR_0": 7,
            "NORMAL": 6,
            "POSITION": 5,
            "TEXCOORD_0": 8
          },
          "indices": 9,
          "material": 1,
          "mode": 4
        }
      ]
    }
  ],
  "nodes": [
    {
      "children": [
        1
      ],
      "matrix": [
        1.0,
        0.0,
        0.0,
        0.0,
        0.0,
        2.220446049250313e-16,
        -1.0,
        0.0,
        0.0,
        1.0,
        2.220446049250313e-16,
        0.0,
        0.0,
        0.0,
        0.0,
        1.0
      ],
      "name": "Sketchfab_model"
    },
    {
      "children": [
        2
      ],
      "matrix": [
        1.0,
        0.0,
        0.0,
        0.0,
        0.0,
        -4.371139006309477e-08,
        0.999999999999999,
        0.0,
        0.0,
        -0.999999999999999,
        -4.371139006309477e-08,
        0.0,
        0.0,
        0.0,
        0.0,
        1.0
      ],
      "name": "Collada visual scene group"
    },
    {
      "children": [
        3,
        4
      ],
      "name": "sphere1-0"
    },
    {
      "mesh": 0,
      "name": "preto"
    },
    {
      "mesh": 1,
      "name": "sphere1_auv"
    }
  ],
  "samplers": [
    {
      "magFilter": 9729,
      "minFilter": 9987,
      "wrapS": 10497,
      "wrapT": 10497
    }
  ],
  "scene": 0,
  "scenes": [
    {
      "name": "Sketchfab_Scene",
      "nodes": [
        0
      ]
    }
  ],
  "textures": [
    {
      "sampler": 0,
      "source": 0
    }
  ]
}
